<svg width="110" height="40" viewBox="0 0 110 40" fill="none" xmlns="http://www.w3.org/2000/svg">
<path fill-rule="evenodd" clip-rule="evenodd" d="M37.8465 5.24943C40.5848 6.45828 40.9184 9.40359 40.9373 12.2454C40.9495 14.0727 40.4555 16.2921 39.8268 18.3059C37.8884 24.5145 33.2794 30.8268 26.7348 34.3936C26.7271 34.3978 26.7165 34.4038 26.7031 34.4114C26.3817 34.594 24.4557 35.6878 22.5285 34.3276C20.5971 32.9644 20.962 30.9403 20.962 30.9403L22.1453 20.2474C22.1954 19.8344 22.2568 19.4142 22.3177 18.9972L22.3177 18.9972L22.3177 18.9972L22.3177 18.9972C22.5143 17.6518 22.7061 16.3392 22.5 15.4045C22.3255 14.6132 21.3088 12.5333 18.7872 12.6239C16.4648 12.7074 15.1981 14.4445 15.1981 16.3717C15.1981 17.3903 15.6201 18.1673 16.3851 18.8542C16.592 19.0402 16.8243 19.1689 17.0553 19.297L17.0554 19.297L17.0554 19.297C17.1197 19.3327 17.1839 19.3683 17.2475 19.405C17.4858 19.5428 17.7837 19.7796 18.0466 20.1012L18.0593 20.1163C18.1647 20.2409 18.6708 20.8393 18.6016 21.7666C18.5699 22.1875 18.3665 22.7516 18.0412 23.2448C17.4412 24.1541 16.1149 24.3405 15.3218 24.1089C13.7919 23.6619 12.571 22.5869 11.4851 21.0864C10.6189 19.8893 10 18.13 10 16.4623C10 11.4418 13.8261 7.5463 18.7872 7.5463C20.3572 7.5463 21.8437 7.83188 23.1188 8.51349C24.0833 9.02904 25.0507 9.83073 25.7178 10.5687C26.7691 11.731 27.4918 13.3089 27.6981 15.0418C27.9379 17.0565 27.608 19.7515 27.2975 22.1895L26.705 26.1641L26.6367 26.6217C26.558 27.1497 27.1948 27.4879 27.606 27.1367C27.9769 26.82 28.2944 26.5462 28.3167 26.5267C35.2475 20.4819 35.7425 12.9866 35.7425 12.9866C35.7425 12.9866 32.2515 12.3014 32.2773 8.997C32.2858 7.89182 32.9473 6.61096 33.8861 5.85376C35.423 4.61456 37.3369 5.02436 37.8465 5.24943ZM96.9087 13.3384C98.2911 13.2241 99.664 14.2201 99.9703 15.7706C100.185 17.2907 99.2508 18.8563 96.9087 19.662C96.0804 19.9469 95.3217 20.1485 94.7029 20.3129C94.4291 20.3856 94.1826 20.4511 93.9697 20.5133C94.0224 20.8758 94.1074 25.0583 91.5205 28.2961C89.7795 30.3259 88.077 31.112 85.5481 31.112C82.6815 31.112 80.3155 30.1656 79.2904 27.8133C78.0191 29.6338 76.0903 31.2754 72.9064 31.2197C71.3217 31.1918 69.8171 30.6186 68.865 29.0257C66.9976 30.9715 65.13 31.3666 62.7421 31.2148C61.9594 31.2148 59.9186 30.5932 59.253 29.0775C58.2574 30.0553 56.7875 30.6713 55.4345 30.9715C54.3381 31.2148 53.2993 31.1495 52.9451 31.1082C51.8606 30.9813 50.8854 30.3844 50.2509 29.6338C50.1233 29.4827 50.0656 29.3735 49.9914 29.2332C49.9604 29.1747 49.9267 29.1108 49.8837 29.0361C49.7537 28.8097 49.6386 28.5674 49.536 28.3131C49.1729 28.775 48.7467 29.1986 48.2917 29.6078C47.5976 30.2316 46.833 30.5957 46.5772 30.7121C46.0353 30.9588 45.4651 31.1002 44.8627 31.1768C43.7708 31.3157 43.1178 31.2218 42.8375 31.1814L42.7808 31.1734C41.9984 31.0669 41.2556 30.801 40.6127 30.3166C40.3923 30.1685 40.2121 30.0177 40.0866 29.877C39.9383 29.7104 39.8096 29.5401 39.696 29.367C39.687 29.3545 39.678 29.3423 39.6689 29.3302C39.6564 29.3134 39.6439 29.2967 39.6318 29.279L39.6377 29.2748C38.9973 28.2384 38.9398 27.079 39.2295 25.7424L41.8089 16.7435C41.8089 16.7435 42.0455 15.6881 43.156 15.1627C43.9164 14.8028 44.8486 14.9845 45.2379 15.1627C47.432 16.1659 46.7074 18.3244 46.7074 18.3244C46.6671 18.4623 46.463 19.1786 46.1862 20.1498L46.1825 20.1629L46.1815 20.1663L46.1803 20.1704L46.1803 20.1706C45.6395 22.0685 44.8257 24.9242 44.4117 26.3505L44.4088 26.3603C44.379 26.4618 44.2659 26.8472 44.3418 27.2016C44.3905 27.429 44.5549 27.6552 44.8625 27.82C44.9568 27.8706 45.0596 27.9123 45.1684 27.9423C45.5617 28.0236 46.0834 27.9728 46.5772 27.5665C47.4448 26.8526 48.3606 25.6749 49.1488 23.9523C49.4196 23.3607 49.6676 22.7346 49.8836 22.0941C50.1768 21.2247 50.5083 20.4849 50.9708 19.662C52.3872 17.1418 54.4675 15.0611 57.2389 15.0611C58.5894 15.0611 60.6444 15.519 61.5399 16.3787C62.304 13.9111 63.0556 11.3307 63.2841 10.5415C63.3296 10.3845 63.3953 10.201 63.4833 10.0551C63.7928 9.54205 64.6836 8.42866 66.4158 8.83898C67.5195 9.10045 68.0383 9.79044 68.2529 10.42C68.3623 10.7413 68.3927 11.0468 68.3957 11.2711C68.3988 11.4933 68.305 11.8792 68.305 11.8792L64.334 25.6207C63.9897 26.6999 63.9221 26.9587 64.2032 27.4449C64.3185 27.6444 64.6708 27.9576 65.1913 27.9967C65.5031 28.02 65.9978 27.9449 66.4158 27.688C66.8435 27.4252 67.6176 26.7532 68.1973 25.8639C68.6056 25.2378 68.9536 24.3495 69.355 23.067C69.4501 22.7862 70.0632 20.7763 70.2121 20.27C70.8033 18.2623 71.0695 17.1083 71.0695 17.1083C71.0695 17.1083 71.2938 15.9226 72.1716 15.4058C72.67 15.1122 73.4639 14.8202 74.3759 15.041C75.0346 15.2004 75.5786 15.7471 75.8454 16.1354C76.5007 17.0895 76.098 18.18 76.098 18.18L73.7423 26.472C73.7423 26.472 73.437 27.374 74.2531 27.811C74.6184 28.0067 75.107 28.0752 75.6004 27.8097C77.8048 26.6241 79.2549 22.1819 79.2549 22.1819C79.7635 20.8315 81.1366 18.5927 82.1599 17.5859C83.8144 15.9577 85.4993 15.0611 87.7182 15.0611C89.6777 15.0611 91.4279 15.7355 92.665 16.9638C93.3344 16.9867 94.0921 16.7435 94.0921 16.7435C94.0921 16.7435 94.0973 16.1705 94.0921 16.1354C94.0495 15.4088 94.7045 13.5208 96.9087 13.3384ZM85.2805 27.5C87.1865 27.5 89.3206 25.3588 89.6821 22.3799C89.7159 21.4897 89.6437 20.2778 87.9653 20.0289C86.4787 19.8085 85.2744 20.8925 84.5551 21.8322C84.1913 22.3078 83.5812 23.4795 83.2434 24.7177C82.8937 26 83.2653 27.4427 85.0893 27.4937C85.1535 27.498 85.2169 27.5 85.2805 27.5ZM58.4679 25.1463C57.8548 26.0644 56.8422 26.5535 55.7123 26.5625C54.6794 26.5625 54.0626 25.7365 54.0626 24.3527C54.0626 22.7374 55.1026 20.948 56.1181 19.9033C56.6809 19.3244 57.9643 18.4978 59.0872 19.6172C59.5353 20.0642 60.4386 22.1958 58.4679 25.1463ZM46.0821 13.4375C47.425 13.4375 48.4376 12.4402 48.4376 11.1179C48.4376 9.79012 47.4029 8.75002 46.0821 8.75002C44.7745 8.75002 43.7501 9.79012 43.7501 11.1179C43.7501 12.4187 44.7745 13.4375 46.0821 13.4375ZM77.5 11.1179C77.5 12.4402 76.4874 13.4375 75.1445 13.4375C73.837 13.4375 72.8125 12.4187 72.8125 11.1179C72.8125 9.79012 73.837 8.75002 75.1445 8.75002C76.4653 8.75002 77.5 9.79012 77.5 11.1179Z" fill="#FC0F3A"/>
</svg>
